<svg version="1.1" id="Layer_1" xmlns="http://www.w3.org/2000/svg" xmlns:xlink="http://www.w3.org/1999/xlink" x="0px" y="0px"
	 width="100%" viewBox="0 0 1957 2166" enable-background="new 0 0 1957 2166" xml:space="preserve">
<path fill="#000000" opacity="1.000000" stroke="none" 
	d="
M2.000000,662.000000 
	C2.000000,442.111633 2.000000,222.223236 2.000000,2.000000 
	C336.718262,2.000000 671.436584,2.000000 1007.684082,2.713157 
	C1007.087341,4.164441 1004.997864,5.399231 1002.829651,5.557765 
	C991.247437,6.404617 979.617188,6.667869 968.056213,7.714841 
	C938.020874,10.434868 908.013000,13.458467 877.151245,16.320087 
	C875.308960,16.307339 874.291016,16.221109 873.312927,16.379990 
	C829.423523,23.508993 785.379700,29.815983 741.686462,37.995281 
	C666.723145,52.028290 593.507019,72.820412 521.884583,98.979088 
	C445.445190,126.897026 372.247528,161.673615 302.955841,204.504608 
	C238.745331,244.194839 179.520523,290.280609 125.581207,343.075623 
	C111.797562,356.566833 98.482758,370.592865 85.693405,385.029510 
	C70.929863,401.694611 57.002769,419.100037 42.670799,436.148926 
	C40.102547,439.204102 39.162117,442.228943 40.839249,446.193604 
	C43.945786,453.537415 46.481209,461.121765 49.549992,468.482727 
	C80.587090,542.930298 124.628136,609.136902 177.381760,669.796265 
	C178.811020,671.439758 180.815094,672.583374 182.774719,674.137451 
	C184.708267,671.069824 186.395370,668.598450 187.878189,666.010132 
	C212.488617,623.050903 242.693039,584.232971 276.459320,548.228699 
	C318.273895,503.642700 364.857574,464.519135 415.571655,430.388885 
	C468.725800,394.616455 525.016418,364.605621 584.193115,340.094116 
	C606.598938,330.813446 629.377808,322.433380 652.737671,313.644836 
	C693.208130,300.307404 733.438721,288.838165 774.270508,279.344666 
	C838.076477,264.509583 902.653931,254.629715 967.803650,248.434967 
	C995.540771,245.797592 1023.361511,243.504379 1051.195435,242.557480 
	C1084.702026,241.417572 1118.265015,241.545685 1151.799927,241.746445 
	C1179.725464,241.913620 1207.656616,242.687607 1235.564209,243.746719 
	C1254.788452,244.476303 1273.980225,246.103592 1293.180420,247.419250 
	C1309.627197,248.546234 1326.065186,249.800491 1343.938354,251.102753 
	C1310.824463,169.659592 1278.093262,89.157623 1245.334351,8.587428 
	C1229.958740,7.580021 1215.392822,6.676601 1200.837524,5.623821 
	C1198.296021,5.439989 1195.799805,4.627488 1193.282715,4.105350 
	C1193.521851,3.403580 1193.760986,2.701802 1194.000000,2.000012 
	C1449.258545,2.000000 1704.517090,2.000000 1960.000000,2.000000 
	C1960.000000,708.051636 1960.000000,1414.103394 1959.500977,2121.809570 
	C1957.376221,2120.316162 1955.312012,2117.316162 1954.191040,2113.997803 
	C1939.098633,2069.319092 1924.290894,2024.544312 1909.109985,1979.896118 
	C1881.908813,1899.894775 1854.523560,1819.955811 1827.160400,1740.009644 
	C1823.023315,1727.922241 1818.591187,1715.935791 1814.240723,1703.105713 
	C1805.803467,1676.098755 1797.698486,1649.796143 1788.984009,1623.697021 
	C1766.479370,1556.296509 1743.737061,1488.975342 1721.020630,1421.645752 
	C1713.806885,1400.264771 1706.375854,1378.957275 1698.885742,1356.843994 
	C1677.765625,1293.400635 1656.804077,1230.729492 1635.861084,1168.113525 
	C1633.610718,1168.113525 1632.301025,1168.006714 1631.013184,1168.129272 
	C1604.935547,1170.614014 1578.880005,1173.359131 1552.779053,1175.565674 
	C1525.674927,1177.856934 1498.548584,1180.009399 1471.393188,1181.533936 
	C1439.897461,1183.302246 1408.358765,1184.303345 1376.841187,1185.693604 
	C1373.880127,1185.824097 1370.936646,1186.355957 1367.058594,1186.560791 
	C1349.521973,1186.840454 1332.910034,1187.669189 1316.302002,1187.594360 
	C1283.698730,1187.447388 1251.095093,1186.932251 1218.496582,1186.308350 
	C1196.564209,1185.888794 1174.629150,1185.268921 1152.715210,1184.291382 
	C1125.848877,1183.092651 1098.957764,1181.991089 1072.160156,1179.824097 
	C1036.786621,1176.963623 1001.440857,1173.567993 966.183044,1169.529785 
	C940.157959,1166.549194 914.290161,1162.190186 888.357239,1158.411255 
	C873.584900,1156.258545 858.822571,1154.037354 843.412476,1151.342041 
	C834.670166,1149.850952 826.429688,1149.506226 818.499084,1147.756348 
	C795.858765,1142.760254 773.238708,1137.598877 750.804443,1131.758301 
	C714.186035,1122.224976 677.525818,1112.765869 641.233398,1102.085571 
	C571.964294,1081.701294 504.736206,1055.828735 439.613464,1024.560059 
	C429.152954,1019.537537 418.552856,1014.805603 407.575073,1009.414551 
	C394.974487,1002.917542 382.498474,997.506836 370.727997,990.848816 
	C350.141235,979.203735 329.839539,967.033691 309.689972,954.641907 
	C283.562866,938.574036 259.141388,920.052673 234.618393,901.669922 
	C184.508438,864.106812 137.862473,822.692810 95.349556,776.714478 
	C64.192429,743.017700 35.498383,707.300354 9.479778,669.455383 
	C7.519407,666.603882 4.517669,664.468323 2.000000,662.000000 
M1068.191895,377.746613 
	C1065.531006,377.799805 1062.846680,377.644135 1060.212891,377.939026 
	C1037.467041,380.485748 1014.693481,382.830139 991.997925,385.773102 
	C934.929810,393.173248 878.594238,404.348633 823.119629,419.693420 
	C751.400757,439.531494 682.267395,465.867676 616.705444,501.369843 
	C543.855713,540.818298 478.178619,589.457336 421.873901,650.521118 
	C390.834290,684.184326 363.725464,720.651245 341.120514,760.442139 
	C335.415833,770.483948 330.463043,780.952942 324.905396,791.728455 
	C388.156311,843.231323 456.021057,885.317383 529.050903,920.659180 
	C530.975525,917.409790 532.523743,914.527527 534.318909,911.808289 
	C547.140076,892.387207 559.097168,872.312134 573.053772,853.741211 
	C604.022034,812.534241 641.094849,777.241333 682.234497,746.274841 
	C719.029358,718.578735 758.062988,694.468994 800.004944,675.320618 
	C821.158447,665.663086 842.643677,656.732422 865.426331,647.354492 
	C880.228333,642.340820 894.915039,636.950378 909.853027,632.381287 
	C963.340698,616.020935 1017.902710,604.815063 1073.356567,597.321533 
	C1123.804932,590.504456 1174.496582,588.148438 1225.253418,586.479431 
	C1241.500854,585.945129 1257.807007,587.565247 1274.087036,587.579346 
	C1311.338257,587.611572 1348.449341,589.972229 1385.482788,593.690735 
	C1408.910522,596.043091 1432.295776,598.816711 1455.705566,601.352417 
	C1457.585083,601.555969 1459.505859,601.379272 1462.942993,601.379272 
	C1443.622681,527.076416 1424.594360,453.896698 1405.337036,379.836090 
	C1393.299316,378.668152 1381.519653,377.095276 1369.689575,376.459259 
	C1336.184448,374.657898 1302.671753,372.368866 1269.137939,371.857086 
	C1204.595459,370.872070 1140.041138,371.204834 1075.626221,376.396912 
	C1073.719238,376.550629 1071.873779,377.466858 1068.191895,377.746613 
z"/>
<path fill="#8737E1" opacity="1.000000" stroke="none" 
	d="
M408.017273,1009.939331 
	C418.552856,1014.805603 429.152954,1019.537537 439.613464,1024.560059 
	C504.736206,1055.828735 571.964294,1081.701294 641.233398,1102.085571 
	C677.525818,1112.765869 714.186035,1122.224976 750.804443,1131.758301 
	C773.238708,1137.598877 795.858765,1142.760254 818.499084,1147.756348 
	C826.429688,1149.506226 834.670166,1149.850952 843.231445,1152.022827 
	C841.395630,1156.848267 839.408203,1160.733887 836.752075,1164.090332 
	C804.550842,1204.783447 772.221436,1245.375122 739.986206,1286.041504 
	C713.742554,1319.149048 687.614624,1352.348511 661.374329,1385.458862 
	C628.730225,1426.649658 596.004028,1467.775269 563.349365,1508.957520 
	C537.306946,1541.800781 511.369934,1574.727539 485.291077,1607.541748 
	C460.455353,1638.791626 435.425476,1669.887451 410.610992,1701.154175 
	C384.141083,1734.506348 357.893982,1768.035522 331.421906,1801.385986 
	C296.884735,1844.896973 262.180786,1888.275635 227.695602,1931.827637 
	C225.076691,1935.135376 223.627029,1939.369141 220.972168,1942.885986 
	C210.441040,1935.953247 200.438492,1929.494995 190.724899,1922.628174 
	C149.386368,1893.404053 111.789543,1860.000366 79.610504,1820.837402 
	C45.549030,1779.383179 17.930428,1734.371582 5.531055,1681.324341 
	C5.224474,1680.012695 3.215163,1679.099243 1.999999,1678.000000 
	C2.000000,1621.291504 2.000000,1564.583130 2.602401,1507.174072 
	C5.594846,1508.626099 7.984890,1510.778931 11.254433,1513.723877 
	C16.273470,1507.735107 21.035097,1502.320801 25.505419,1496.675781 
	C51.934841,1463.300537 78.218948,1429.810181 104.702652,1396.478149 
	C132.013016,1362.105835 159.607758,1327.959229 186.873962,1293.552246 
	C220.751846,1250.801636 254.319122,1207.805054 288.206390,1165.061890 
	C325.605072,1117.889648 363.270355,1070.928711 400.631714,1023.727234 
	C403.816559,1019.703491 405.588806,1014.561707 408.017273,1009.939331 
z"/>
<path fill="#6342E3" opacity="1.000000" stroke="none" 
	d="
M1699.044189,1357.616089 
	C1706.375854,1378.957275 1713.806885,1400.264771 1721.020630,1421.645752 
	C1743.737061,1488.975342 1766.479370,1556.296509 1788.984009,1623.697021 
	C1797.698486,1649.796143 1805.803467,1676.098755 1813.568848,1703.298096 
	C1810.364014,1706.782104 1807.474487,1709.034424 1805.245117,1711.816040 
	C1798.375000,1720.388184 1791.856934,1729.241699 1785.023682,1737.844238 
	C1759.974121,1769.379395 1734.805054,1800.819458 1709.772095,1832.367554 
	C1686.185547,1862.093018 1662.771851,1891.955566 1639.178223,1921.675415 
	C1604.410034,1965.470703 1569.515503,2009.165771 1534.738892,2052.954590 
	C1507.621338,2087.099609 1480.524780,2121.261963 1453.655396,2155.602051 
	C1450.933960,2159.080322 1449.845947,2163.836670 1448.000000,2168.000000 
	C1347.958252,2168.000000 1247.916382,2168.000000 1147.636230,2167.331543 
	C1145.661011,2165.897217 1143.952881,2164.543213 1142.182495,2164.456299 
	C1125.308350,2163.625488 1108.415649,2163.158936 1091.544800,2162.272461 
	C1082.346436,2161.788818 1073.179932,2160.698486 1064.160034,2159.202148 
	C1067.936401,2152.984863 1071.148682,2147.128662 1075.230713,2141.959473 
	C1107.402954,2101.218018 1139.770874,2060.631104 1172.019653,2019.949829 
	C1198.274048,1986.829956 1224.376099,1953.589111 1250.676025,1920.505493 
	C1278.010254,1886.120850 1305.612427,1851.949097 1332.894653,1817.523438 
	C1366.792603,1774.750000 1400.365479,1731.718872 1434.291626,1688.967896 
	C1476.904297,1635.270752 1519.826172,1581.818726 1562.440918,1528.123169 
	C1601.746948,1478.596558 1640.772705,1428.847412 1680.054321,1379.301147 
	C1686.016357,1371.781128 1692.696289,1364.830200 1699.044189,1357.616089 
z"/>
<path fill="#9334E1" opacity="1.000000" stroke="none" 
	d="
M407.575073,1009.414551 
	C405.588806,1014.561707 403.816559,1019.703491 400.631714,1023.727234 
	C363.270355,1070.928711 325.605072,1117.889648 288.206390,1165.061890 
	C254.319122,1207.805054 220.751846,1250.801636 186.873962,1293.552246 
	C159.607758,1327.959229 132.013016,1362.105835 104.702652,1396.478149 
	C78.218948,1429.810181 51.934841,1463.300537 25.505419,1496.675781 
	C21.035097,1502.320801 16.273470,1507.735107 11.254433,1513.723877 
	C7.984890,1510.778931 5.594846,1508.626099 2.602401,1506.236694 
	C2.000000,1225.291504 2.000000,944.583069 2.000000,662.937317 
	C4.517669,664.468323 7.519407,666.603882 9.479778,669.455383 
	C35.498383,707.300354 64.192429,743.017700 95.349556,776.714478 
	C137.862473,822.692810 184.508438,864.106812 234.618393,901.669922 
	C259.141388,920.052673 283.562866,938.574036 309.689972,954.641907 
	C329.839539,967.033691 350.141235,979.203735 370.727997,990.848816 
	C382.498474,997.506836 394.974487,1002.917542 407.575073,1009.414551 
z"/>
<path fill="#000001" opacity="1.000000" stroke="none" 
	d="
M1063.999023,2159.882080 
	C1073.179932,2160.698486 1082.346436,2161.788818 1091.544800,2162.272461 
	C1108.415649,2163.158936 1125.308350,2163.625488 1142.182495,2164.456299 
	C1143.952881,2164.543213 1145.661011,2165.897217 1146.698975,2167.331543 
	C764.870911,2168.000000 383.741882,2168.000000 2.000000,2168.000000 
	C2.000000,2005.292114 2.000000,1842.583374 1.999999,1678.937256 
	C3.215163,1679.099243 5.224474,1680.012695 5.531055,1681.324341 
	C17.930428,1734.371582 45.549030,1779.383179 79.610504,1820.837402 
	C111.789543,1860.000366 149.386368,1893.404053 190.724899,1922.628174 
	C200.438492,1929.494995 210.441040,1935.953247 221.417755,1943.343994 
	C253.887527,1964.274902 286.507294,1982.145142 320.097412,1998.383789 
	C365.388733,2020.279663 411.776398,2039.536743 459.652588,2054.764160 
	C506.058777,2069.524170 553.031982,2082.531006 599.914368,2095.746338 
	C613.488525,2099.572754 627.607483,2101.466309 642.059570,2104.773438 
	C729.461731,2124.485352 817.245239,2137.773682 905.565125,2147.506592 
	C944.402649,2151.786865 983.385742,2154.787109 1022.331604,2158.021240 
	C1036.176880,2159.170898 1050.107422,2159.291748 1063.999023,2159.882080 
z"/>
<path fill="#8F35E0" opacity="1.000000" stroke="none" 
	d="
M1193.062744,2.000012 
	C1193.760986,2.701802 1193.521851,3.403580 1193.282715,4.105350 
	C1195.799805,4.627488 1198.296021,5.439989 1200.837524,5.623821 
	C1215.392822,6.676601 1229.958740,7.580021 1245.334351,8.587428 
	C1278.093262,89.157623 1310.824463,169.659592 1343.938354,251.102753 
	C1326.065186,249.800491 1309.627197,248.546234 1293.180420,247.419250 
	C1273.980225,246.103592 1254.788452,244.476303 1235.564209,243.746719 
	C1207.656616,242.687607 1179.725464,241.913620 1151.799927,241.746445 
	C1118.265015,241.545685 1084.702026,241.417572 1051.195435,242.557480 
	C1023.361511,243.504379 995.540771,245.797592 967.803650,248.434967 
	C902.653931,254.629715 838.076477,264.509583 774.270508,279.344666 
	C733.438721,288.838165 693.208130,300.307404 652.761536,312.897430 
	C654.055664,307.730682 655.307007,302.710663 658.219116,298.990692 
	C683.399170,266.824921 708.868164,234.885193 734.271118,202.894058 
	C757.815552,173.243332 781.408325,143.630936 804.935974,113.966881 
	C827.431885,85.603745 849.959961,57.264938 872.221191,28.718313 
	C874.946350,25.223686 876.107971,20.509796 877.994202,16.360935 
	C908.013000,13.458467 938.020874,10.434868 968.056213,7.714841 
	C979.617188,6.667869 991.247437,6.404617 1002.829651,5.557765 
	C1004.997864,5.399231 1007.087341,4.164441 1008.606567,2.713157 
	C1069.375122,2.000000 1130.750244,2.000000 1193.062744,2.000012 
z"/>
<path fill="#5B44E2" opacity="1.000000" stroke="none" 
	d="
M1448.937256,2168.000000 
	C1449.845947,2163.836670 1450.933960,2159.080322 1453.655396,2155.602051 
	C1480.524780,2121.261963 1507.621338,2087.099609 1534.738892,2052.954590 
	C1569.515503,2009.165771 1604.410034,1965.470703 1639.178223,1921.675415 
	C1662.771851,1891.955566 1686.185547,1862.093018 1709.772095,1832.367554 
	C1734.805054,1800.819458 1759.974121,1769.379395 1785.023682,1737.844238 
	C1791.856934,1729.241699 1798.375000,1720.388184 1805.245117,1711.816040 
	C1807.474487,1709.034424 1810.364014,1706.782104 1813.623535,1704.095215 
	C1818.591187,1715.935791 1823.023315,1727.922241 1827.160400,1740.009644 
	C1854.523560,1819.955811 1881.908813,1899.894775 1909.109985,1979.896118 
	C1924.290894,2024.544312 1939.098633,2069.319092 1954.191040,2113.997803 
	C1955.312012,2117.316162 1957.376221,2120.316162 1959.500977,2122.731934 
	C1960.000000,2125.428711 1960.000000,2128.857422 1959.147705,2133.264160 
	C1949.371826,2134.983643 1940.440186,2135.640869 1931.525879,2136.481445 
	C1899.508667,2139.501221 1867.513794,2142.769775 1835.478149,2145.576172 
	C1813.663452,2147.487549 1791.792480,2148.750244 1769.951172,2150.364990 
	C1737.542236,2152.760986 1705.147827,2155.363770 1672.727295,2157.587891 
	C1649.555176,2159.177979 1626.360962,2160.525146 1603.157593,2161.556641 
	C1576.935425,2162.722412 1550.691528,2163.395752 1524.458862,2164.335938 
	C1521.164917,2164.453857 1517.870972,2164.814209 1514.612915,2165.302246 
	C1514.281250,2165.351807 1514.198242,2167.060791 1514.000000,2168.000000 
	C1492.624878,2168.000000 1471.249756,2168.000000 1448.937256,2168.000000 
z"/>
<path fill="#020104" opacity="1.000000" stroke="none" 
	d="
M1514.937256,2168.000000 
	C1514.198242,2167.060791 1514.281250,2165.351807 1514.612915,2165.302246 
	C1517.870972,2164.814209 1521.164917,2164.453857 1524.458862,2164.335938 
	C1550.691528,2163.395752 1576.935425,2162.722412 1603.157593,2161.556641 
	C1626.360962,2160.525146 1649.555176,2159.177979 1672.727295,2157.587891 
	C1705.147827,2155.363770 1737.542236,2152.760986 1769.951172,2150.364990 
	C1791.792480,2148.750244 1813.663452,2147.487549 1835.478149,2145.576172 
	C1867.513794,2142.769775 1899.508667,2139.501221 1931.525879,2136.481445 
	C1940.440186,2135.640869 1949.371826,2134.983643 1959.147705,2134.121094 
	C1960.000000,2145.312744 1960.000000,2156.625244 1960.000000,2168.000000 
	C1811.958252,2168.000000 1663.916382,2168.000000 1514.937256,2168.000000 
z"/>
<path fill="#7A3BE2" opacity="1.000000" stroke="none" 
	d="
M641.476562,2104.246094 
	C627.607483,2101.466309 613.488525,2099.572754 599.914368,2095.746338 
	C553.031982,2082.531006 506.058777,2069.524170 459.652588,2054.764160 
	C411.776398,2039.536743 365.388733,2020.279663 320.097412,1998.383789 
	C286.507294,1982.145142 253.887527,1964.274902 222.079376,1943.630371 
	C223.627029,1939.369141 225.076691,1935.135376 227.695602,1931.827637 
	C262.180786,1888.275635 296.884735,1844.896973 331.421906,1801.385986 
	C357.893982,1768.035522 384.141083,1734.506348 410.610992,1701.154175 
	C435.425476,1669.887451 460.455353,1638.791626 485.291077,1607.541748 
	C511.369934,1574.727539 537.306946,1541.800781 563.349365,1508.957520 
	C596.004028,1467.775269 628.730225,1426.649658 661.374329,1385.458862 
	C687.614624,1352.348511 713.742554,1319.149048 739.986206,1286.041504 
	C772.221436,1245.375122 804.550842,1204.783447 836.752075,1164.090332 
	C839.408203,1160.733887 841.395630,1156.848267 843.874756,1152.527588 
	C858.822571,1154.037354 873.584900,1156.258545 888.357239,1158.411255 
	C914.290161,1162.190186 940.157959,1166.549194 966.183044,1169.529785 
	C1001.440857,1173.567993 1036.786621,1176.963623 1072.160156,1179.824097 
	C1098.957764,1181.991089 1125.848877,1183.092651 1152.715210,1184.291382 
	C1174.629150,1185.268921 1196.564209,1185.888794 1218.496582,1186.308350 
	C1251.095093,1186.932251 1283.698730,1187.447388 1316.302002,1187.594360 
	C1332.910034,1187.669189 1349.521973,1186.840454 1366.973389,1187.235474 
	C1365.284180,1192.286133 1363.169189,1196.846313 1360.154297,1200.702759 
	C1343.353638,1222.193481 1326.331543,1243.510864 1309.391479,1264.892456 
	C1288.111816,1291.751465 1266.863770,1318.635376 1245.555786,1345.471802 
	C1221.145508,1376.214966 1196.638550,1406.881470 1172.258789,1437.648804 
	C1148.497925,1467.635010 1124.898926,1497.749634 1101.130615,1527.729980 
	C1068.889648,1568.397461 1036.514160,1608.958740 1004.273499,1649.626587 
	C980.505615,1679.607178 956.922119,1709.733887 933.146667,1739.708618 
	C901.102600,1780.108032 868.904053,1820.385010 836.863403,1860.787109 
	C807.716553,1897.540405 778.721863,1934.414307 749.605591,1971.192017 
	C719.457336,2009.273071 689.319763,2047.363159 658.986755,2085.296631 
	C653.629517,2091.996582 647.337158,2097.948730 641.476562,2104.246094 
z"/>
<path fill="#6E3FE2" opacity="1.000000" stroke="none" 
	d="
M642.059570,2104.773438 
	C647.337158,2097.948730 653.629517,2091.996582 658.986755,2085.296631 
	C689.319763,2047.363159 719.457336,2009.273071 749.605591,1971.192017 
	C778.721863,1934.414307 807.716553,1897.540405 836.863403,1860.787109 
	C868.904053,1820.385010 901.102600,1780.108032 933.146667,1739.708618 
	C956.922119,1709.733887 980.505615,1679.607178 1004.273499,1649.626587 
	C1036.514160,1608.958740 1068.889648,1568.397461 1101.130615,1527.729980 
	C1124.898926,1497.749634 1148.497925,1467.635010 1172.258789,1437.648804 
	C1196.638550,1406.881470 1221.145508,1376.214966 1245.555786,1345.471802 
	C1266.863770,1318.635376 1288.111816,1291.751465 1309.391479,1264.892456 
	C1326.331543,1243.510864 1343.353638,1222.193481 1360.154297,1200.702759 
	C1363.169189,1196.846313 1365.284180,1192.286133 1367.899780,1187.376221 
	C1370.936646,1186.355957 1373.880127,1185.824097 1376.841187,1185.693604 
	C1408.358765,1184.303345 1439.897461,1183.302246 1471.393188,1181.533936 
	C1498.548584,1180.009399 1525.674927,1177.856934 1552.779053,1175.565674 
	C1578.880005,1173.359131 1604.935547,1170.614014 1631.013184,1168.129272 
	C1632.301025,1168.006714 1633.610718,1168.113525 1635.861084,1168.113525 
	C1656.804077,1230.729492 1677.765625,1293.400635 1698.885742,1356.843994 
	C1692.696289,1364.830200 1686.016357,1371.781128 1680.054321,1379.301147 
	C1640.772705,1428.847412 1601.746948,1478.596558 1562.440918,1528.123169 
	C1519.826172,1581.818726 1476.904297,1635.270752 1434.291626,1688.967896 
	C1400.365479,1731.718872 1366.792603,1774.750000 1332.894653,1817.523438 
	C1305.612427,1851.949097 1278.010254,1886.120850 1250.676025,1920.505493 
	C1224.376099,1953.589111 1198.274048,1986.829956 1172.019653,2019.949829 
	C1139.770874,2060.631104 1107.402954,2101.218018 1075.230713,2141.959473 
	C1071.148682,2147.128662 1067.936401,2152.984863 1064.160034,2159.202637 
	C1050.107422,2159.291748 1036.176880,2159.170898 1022.331604,2158.021240 
	C983.385742,2154.787109 944.402649,2151.786865 905.565125,2147.506592 
	C817.245239,2137.773682 729.461731,2124.485352 642.059570,2104.773438 
z"/>
<path fill="#9A31E0" opacity="1.000000" stroke="none" 
	d="
M877.151245,16.320089 
	C876.107971,20.509796 874.946350,25.223686 872.221191,28.718313 
	C849.959961,57.264938 827.431885,85.603745 804.935974,113.966881 
	C781.408325,143.630936 757.815552,173.243332 734.271118,202.894058 
	C708.868164,234.885193 683.399170,266.824921 658.219116,298.990692 
	C655.307007,302.710663 654.055664,307.730682 652.010498,312.895386 
	C629.377808,322.433380 606.598938,330.813446 584.193115,340.094116 
	C525.016418,364.605621 468.725800,394.616455 415.571655,430.388885 
	C364.857574,464.519135 318.273895,503.642700 276.459320,548.228699 
	C242.693039,584.232971 212.488617,623.050903 187.878189,666.010132 
	C186.395370,668.598450 184.708267,671.069824 182.774719,674.137451 
	C180.815094,672.583374 178.811020,671.439758 177.381760,669.796265 
	C124.628136,609.136902 80.587090,542.930298 49.549992,468.482727 
	C46.481209,461.121765 43.945786,453.537415 40.839249,446.193604 
	C39.162117,442.228943 40.102547,439.204102 42.670799,436.148926 
	C57.002769,419.100037 70.929863,401.694611 85.693405,385.029510 
	C98.482758,370.592865 111.797562,356.566833 125.581207,343.075623 
	C179.520523,290.280609 238.745331,244.194839 302.955841,204.504608 
	C372.247528,161.673615 445.445190,126.897026 521.884583,98.979088 
	C593.507019,72.820412 666.723145,52.028290 741.686462,37.995281 
	C785.379700,29.815983 829.423523,23.508993 873.312927,16.379990 
	C874.291016,16.221109 875.308960,16.307339 877.151245,16.320089 
z"/>
<path fill="#8E35E0" opacity="1.000000" stroke="none" 
	d="
M863.978943,647.473083 
	C842.643677,656.732422 821.158447,665.663086 800.004944,675.320618 
	C758.062988,694.468994 719.029358,718.578735 682.234497,746.274841 
	C641.094849,777.241333 604.022034,812.534241 573.053772,853.741211 
	C559.097168,872.312134 547.140076,892.387207 534.318909,911.808289 
	C532.523743,914.527527 530.975525,917.409790 529.050903,920.659180 
	C456.021057,885.317383 388.156311,843.231323 324.905396,791.728455 
	C330.463043,780.952942 335.415833,770.483948 341.120514,760.442139 
	C363.725464,720.651245 390.834290,684.184326 421.873901,650.521118 
	C478.178619,589.457336 543.855713,540.818298 616.705444,501.369843 
	C682.267395,465.867676 751.400757,439.531494 823.119629,419.693420 
	C878.594238,404.348633 934.929810,393.173248 991.997925,385.773102 
	C1014.693481,382.830139 1037.467041,380.485748 1060.212891,377.939026 
	C1062.846680,377.644135 1065.531006,377.799805 1069.026855,378.606232 
	C1067.668945,383.503448 1066.009399,387.962830 1063.201294,391.514130 
	C1031.255737,431.915405 999.106628,472.155731 967.068359,512.483826 
	C934.410339,553.591919 901.760559,594.706909 869.298157,635.969116 
	C866.756836,639.199402 865.716736,643.610657 863.978943,647.473083 
z"/>
<path fill="#8438E0" opacity="1.000000" stroke="none" 
	d="
M864.702637,647.413818 
	C865.716736,643.610657 866.756836,639.199402 869.298157,635.969116 
	C901.760559,594.706909 934.410339,553.591919 967.068359,512.483826 
	C999.106628,472.155731 1031.255737,431.915405 1063.201294,391.514130 
	C1066.009399,387.962830 1067.668945,383.503448 1069.930786,378.746704 
	C1071.873779,377.466858 1073.719238,376.550629 1075.626221,376.396912 
	C1140.041138,371.204834 1204.595459,370.872070 1269.137939,371.857086 
	C1302.671753,372.368866 1336.184448,374.657898 1369.689575,376.459259 
	C1381.519653,377.095276 1393.299316,378.668152 1405.337036,379.836090 
	C1424.594360,453.896698 1443.622681,527.076416 1462.942993,601.379272 
	C1459.505859,601.379272 1457.585083,601.555969 1455.705566,601.352417 
	C1432.295776,598.816711 1408.910522,596.043091 1385.482788,593.690735 
	C1348.449341,589.972229 1311.338257,587.611572 1274.087036,587.579346 
	C1257.807007,587.565247 1241.500854,585.945129 1225.253418,586.479431 
	C1174.496582,588.148438 1123.804932,590.504456 1073.356567,597.321533 
	C1017.902710,604.815063 963.340698,616.020935 909.853027,632.381287 
	C894.915039,636.950378 880.228333,642.340820 864.702637,647.413818 
z"/>
</svg>